<svg xmlns="http://www.w3.org/2000/svg"  viewBox="0 0 24 24" width="50px" height="50px"><path d="M18,21H6c-1.657,0-3-1.343-3-3V6c0-1.657,1.343-3,3-3h12c1.657,0,3,1.343,3,3v12	C21,19.657,19.657,21,18,21z" opacity=".35"/><path d="M11.164,15.751l-0.197-0.875H8.942l-0.197,0.875c-0.101,0.449-0.5,0.768-0.96,0.768h0c-0.638,0-1.107-0.597-0.956-1.216 l1.594-6.561c0.177-0.73,0.831-1.243,1.581-1.243h0c0.752,0,1.405,0.515,1.582,1.245l1.584,6.56c0.15,0.619-0.32,1.215-0.957,1.215 h-0.09C11.664,16.519,11.265,16.2,11.164,15.751z M9.986,9.461H9.935l-0.764,3.834h1.541L9.986,9.461z"/><path d="M14.974,15.494v-3.968c0-0.567,0.459-1.026,1.026-1.026h0c0.567,0,1.026,0.459,1.026,1.026v3.968 c0,0.567-0.459,1.026-1.026,1.026h0C15.433,16.519,14.974,16.06,14.974,15.494z"/><circle cx="16" cy="8.481" r="1"/></svg>